<svg xmlns="http://www.w3.org/2000/svg" xmlns:xlink="http://www.w3.org/1999/xlink" width="450" zoomAndPan="magnify" viewBox="0 0 337.5 42" height="56" preserveAspectRatio="xMidYMid meet" version="1.0"><defs><g/><clipPath id="08dec4aa8c"><path d="M 1 1 L 29 1 L 29 25 L 1 25 Z M 1 1 " clip-rule="nonzero"/></clipPath><clipPath id="abfd0887f3"><path d="M 0.328125 4.179688 L 27.898438 0.359375 L 31.082031 23.332031 L 3.515625 27.152344 Z M 0.328125 4.179688 " clip-rule="nonzero"/></clipPath><clipPath id="29a412a53a"><path d="M -3.09375 -0.105469 L 29.070312 -4.5625 L 32.890625 23.003906 L 0.730469 27.464844 Z M -3.09375 -0.105469 " clip-rule="nonzero"/></clipPath><clipPath id="7cb72c3e01"><path d="M 17 3 L 27 3 L 27 10 L 17 10 Z M 17 3 " clip-rule="nonzero"/></clipPath><clipPath id="6cced628a3"><path d="M 0.328125 4.179688 L 27.898438 0.359375 L 31.082031 23.332031 L 3.515625 27.152344 Z M 0.328125 4.179688 " clip-rule="nonzero"/></clipPath><clipPath id="3b829c1d2e"><path d="M -3.09375 -0.105469 L 29.070312 -4.5625 L 32.890625 23.003906 L 0.730469 27.464844 Z M -3.09375 -0.105469 " clip-rule="nonzero"/></clipPath><clipPath id="67b902a0c6"><path d="M 5 5 L 23 5 L 23 21 L 5 21 Z M 5 5 " clip-rule="nonzero"/></clipPath><clipPath id="e12d43b916"><path d="M 5.929688 15.976562 L 9.140625 5.640625 L 22.429688 9.773438 L 19.21875 20.109375 Z M 5.929688 15.976562 " clip-rule="nonzero"/></clipPath><clipPath id="8e0df68117"><path d="M 1 6 L 12 6 L 12 14 L 1 14 Z M 1 6 " clip-rule="nonzero"/></clipPath><clipPath id="88f8aff351"><path d="M 0.929688 10.976562 L 4.140625 0.640625 L 17.429688 4.773438 L 14.21875 15.109375 Z M 0.929688 10.976562 " clip-rule="nonzero"/></clipPath><clipPath id="555b052345"><path d="M 14.359375 15.152344 L 17.570312 4.816406 L 4.28125 0.683594 L 1.070312 11.019531 Z M 14.359375 15.152344 " clip-rule="nonzero"/></clipPath><clipPath id="3f90452cf5"><path d="M 8 4 L 17.519531 4 L 17.519531 12 L 8 12 Z M 8 4 " clip-rule="nonzero"/></clipPath><clipPath id="9992673de4"><path d="M 0.929688 10.976562 L 4.140625 0.640625 L 17.429688 4.773438 L 14.21875 15.109375 Z M 0.929688 10.976562 " clip-rule="nonzero"/></clipPath><clipPath id="ac48146bde"><path d="M 14.359375 15.152344 L 17.570312 4.816406 L 4.28125 0.683594 L 1.070312 11.019531 Z M 14.359375 15.152344 " clip-rule="nonzero"/></clipPath><clipPath id="bd1d183810"><rect x="0" width="18" y="0" height="16"/></clipPath><clipPath id="ccdf787c86"><rect x="0" width="31" y="0" height="27"/></clipPath></defs><g transform="matrix(1, 0, 0, 1, 40, 7)"><g clip-path="url(#ccdf787c86)"><g clip-path="url(#08dec4aa8c)"><g clip-path="url(#abfd0887f3)"><g clip-path="url(#29a412a53a)"><path fill="#fa036b" d="M 27.28125 4.734375 C 22.796875 -3.679688 14.410156 5.800781 14.410156 5.800781 C 14.410156 5.800781 3.757812 -1.039062 1.730469 8.277344 C -0.507812 18.550781 17.058594 24.917969 17.058594 24.917969 C 17.058594 24.917969 32.230469 14.011719 27.28125 4.734375 Z M 27.28125 4.734375 " fill-opacity="1" fill-rule="nonzero"/></g></g></g><g clip-path="url(#7cb72c3e01)"><g clip-path="url(#6cced628a3)"><g clip-path="url(#3b829c1d2e)"><path fill="#000000" d="M 25.050781 4.71875 C 24.039062 3.660156 22.429688 3.480469 21.070312 3.875 C 19.710938 4.269531 18.539062 5.15625 17.402344 6.027344 C 18.113281 5.816406 18.765625 5.660156 19.472656 5.449219 C 20.390625 5.175781 21.335938 4.898438 22.289062 5.007812 C 23.453125 5.140625 24.550781 5.882812 25.15625 6.949219 C 25.605469 7.738281 25.984375 8.796875 25.96875 9.753906 C 26.089844 9.039062 26.175781 8.316406 26.140625 7.589844 C 26.089844 6.542969 25.765625 5.464844 25.050781 4.71875 Z M 25.050781 4.71875 " fill-opacity="1" fill-rule="nonzero"/></g></g></g><g clip-path="url(#67b902a0c6)"><g clip-path="url(#e12d43b916)"><g transform="matrix(1, 0, 0, 1, 5, 5)"><g clip-path="url(#bd1d183810)"><g clip-path="url(#8e0df68117)"><g clip-path="url(#88f8aff351)"><g clip-path="url(#555b052345)"><path fill="#000000" d="M 7.703125 12.0625 C 7.773438 12.082031 7.847656 12.101562 7.917969 12.117188 C 7.941406 12.121094 7.960938 12.125 7.984375 12.128906 C 8.035156 12.140625 8.089844 12.148438 8.140625 12.152344 C 8.164062 12.15625 8.1875 12.15625 8.207031 12.160156 C 8.277344 12.167969 8.347656 12.171875 8.417969 12.171875 C 8.425781 12.171875 8.433594 12.167969 8.441406 12.167969 C 8.503906 12.167969 8.570312 12.164062 8.632812 12.160156 C 8.65625 12.160156 8.679688 12.15625 8.703125 12.152344 C 8.75 12.148438 8.800781 12.140625 8.847656 12.132812 C 8.871094 12.128906 8.894531 12.121094 8.917969 12.117188 C 8.980469 12.105469 9.046875 12.089844 9.113281 12.070312 C 9.128906 12.066406 9.144531 12.058594 9.160156 12.050781 C 9.210938 12.035156 9.257812 12.019531 9.304688 12 C 9.332031 11.992188 9.359375 11.980469 9.382812 11.96875 C 9.421875 11.953125 9.460938 11.933594 9.5 11.914062 C 9.523438 11.902344 9.550781 11.890625 9.574219 11.878906 C 9.628906 11.847656 9.679688 11.816406 9.730469 11.785156 C 9.753906 11.769531 9.777344 11.753906 9.804688 11.734375 C 9.835938 11.710938 9.871094 11.6875 9.90625 11.660156 C 9.929688 11.640625 9.953125 11.621094 9.980469 11.601562 C 10.007812 11.578125 10.035156 11.550781 10.066406 11.527344 C 10.089844 11.503906 10.113281 11.484375 10.132812 11.460938 C 10.179688 11.417969 10.222656 11.371094 10.261719 11.324219 C 10.472656 11.078125 10.636719 10.789062 10.738281 10.464844 C 11.132812 9.1875 10.417969 7.828125 9.140625 7.429688 C 9.058594 7.40625 8.980469 7.386719 8.898438 7.367188 C 8.886719 7.367188 8.878906 7.367188 8.867188 7.363281 C 8.796875 7.351562 8.722656 7.339844 8.652344 7.332031 C 8.648438 7.332031 8.644531 7.332031 8.640625 7.332031 C 8.480469 7.316406 8.320312 7.320312 8.164062 7.335938 C 8.101562 7.34375 8.042969 7.351562 7.980469 7.363281 C 7.949219 7.367188 7.917969 7.375 7.886719 7.382812 C 7.847656 7.390625 7.8125 7.402344 7.777344 7.410156 C 7.746094 7.417969 7.714844 7.429688 7.683594 7.4375 C 7.644531 7.449219 7.605469 7.464844 7.566406 7.480469 C 7.539062 7.492188 7.511719 7.5 7.484375 7.511719 C 7.429688 7.535156 7.371094 7.558594 7.316406 7.589844 C 7.292969 7.601562 7.269531 7.617188 7.246094 7.628906 C 7.207031 7.648438 7.171875 7.671875 7.136719 7.691406 C 7.109375 7.707031 7.085938 7.722656 7.0625 7.738281 C 7.023438 7.765625 6.980469 7.796875 6.941406 7.828125 C 6.925781 7.839844 6.910156 7.847656 6.898438 7.859375 C 6.84375 7.902344 6.796875 7.949219 6.746094 7.992188 C 6.730469 8.007812 6.714844 8.027344 6.699219 8.042969 C 6.664062 8.078125 6.628906 8.113281 6.597656 8.152344 C 6.582031 8.167969 6.566406 8.1875 6.550781 8.203125 C 6.511719 8.253906 6.472656 8.304688 6.4375 8.355469 C 6.433594 8.359375 6.425781 8.367188 6.421875 8.371094 C 6.382812 8.429688 6.347656 8.492188 6.3125 8.554688 C 6.300781 8.574219 6.292969 8.59375 6.28125 8.609375 C 6.253906 8.65625 6.230469 8.707031 6.210938 8.757812 C 6.199219 8.777344 6.191406 8.796875 6.183594 8.816406 C 6.15625 8.886719 6.128906 8.953125 6.105469 9.027344 C 5.710938 10.304688 6.421875 11.664062 7.703125 12.0625 Z M 8.578125 6.359375 C 8.6875 6.363281 8.800781 6.375 8.914062 6.390625 C 8.953125 6.398438 8.992188 6.402344 9.027344 6.410156 C 9.070312 6.417969 9.109375 6.425781 9.152344 6.433594 C 9.242188 6.453125 9.335938 6.476562 9.429688 6.503906 C 9.492188 6.523438 9.554688 6.550781 9.613281 6.574219 C 9.613281 6.574219 9.613281 6.574219 9.617188 6.574219 C 11.222656 7.175781 12.125 8.894531 11.710938 10.558594 C 11.710938 10.558594 11.710938 10.558594 11.710938 10.5625 C 11.695312 10.625 11.683594 10.6875 11.664062 10.753906 C 11.574219 11.035156 11.449219 11.296875 11.300781 11.539062 C 11.007812 12.007812 10.609375 12.390625 10.144531 12.664062 C 10.128906 12.675781 10.113281 12.683594 10.097656 12.691406 C 10.035156 12.730469 9.96875 12.761719 9.90625 12.792969 C 9.878906 12.808594 9.855469 12.816406 9.832031 12.828125 C 9.769531 12.859375 9.707031 12.886719 9.640625 12.910156 C 9.613281 12.921875 9.582031 12.933594 9.550781 12.941406 C 9.488281 12.964844 9.429688 12.984375 9.367188 13.003906 C 9.335938 13.015625 9.304688 13.019531 9.277344 13.027344 C 9.171875 13.054688 9.070312 13.078125 8.964844 13.09375 C 8.90625 13.101562 8.851562 13.113281 8.792969 13.117188 C 8.75 13.125 8.703125 13.125 8.660156 13.128906 C 8.601562 13.132812 8.542969 13.136719 8.484375 13.136719 C 8.4375 13.140625 8.394531 13.136719 8.351562 13.136719 C 8.289062 13.136719 8.226562 13.132812 8.164062 13.128906 C 8.121094 13.125 8.082031 13.121094 8.039062 13.117188 C 7.96875 13.109375 7.902344 13.097656 7.832031 13.085938 C 7.796875 13.078125 7.761719 13.074219 7.726562 13.066406 C 7.621094 13.046875 7.519531 13.019531 7.414062 12.988281 C 5.78125 12.480469 4.8125 10.851562 5.074219 9.214844 L 4.109375 8.914062 L 3.894531 9.609375 C 3.816406 9.863281 3.542969 10.007812 3.289062 9.925781 C 3.03125 9.847656 2.890625 9.578125 2.96875 9.320312 L 3.183594 8.625 L 2.257812 8.339844 C 2.003906 8.257812 1.859375 7.988281 1.941406 7.730469 C 2.019531 7.476562 2.289062 7.332031 2.546875 7.414062 L 3.472656 7.699219 L 3.6875 7.003906 C 3.769531 6.75 4.039062 6.605469 4.296875 6.6875 C 4.550781 6.765625 4.695312 7.039062 4.613281 7.292969 L 4.398438 7.988281 L 5.359375 8.285156 C 5.382812 8.238281 5.402344 8.195312 5.429688 8.148438 C 5.449219 8.113281 5.46875 8.078125 5.488281 8.042969 C 5.519531 7.988281 5.554688 7.933594 5.585938 7.882812 C 5.613281 7.84375 5.636719 7.808594 5.664062 7.773438 C 5.695312 7.722656 5.730469 7.675781 5.769531 7.632812 C 5.796875 7.597656 5.824219 7.5625 5.855469 7.527344 C 5.890625 7.484375 5.929688 7.441406 5.96875 7.402344 C 6.046875 7.324219 6.125 7.25 6.207031 7.179688 C 6.226562 7.160156 6.25 7.140625 6.269531 7.121094 C 6.324219 7.078125 6.375 7.039062 6.429688 7.003906 C 6.453125 6.984375 6.480469 6.964844 6.503906 6.945312 C 6.5625 6.90625 6.621094 6.871094 6.679688 6.835938 C 6.703125 6.824219 6.726562 6.808594 6.75 6.796875 C 6.8125 6.761719 6.878906 6.726562 6.941406 6.695312 C 6.960938 6.6875 6.976562 6.679688 6.992188 6.671875 C 7.480469 6.445312 8.023438 6.332031 8.578125 6.359375 " fill-opacity="1" fill-rule="nonzero"/></g></g></g><g clip-path="url(#3f90452cf5)"><g clip-path="url(#9992673de4)"><g clip-path="url(#ac48146bde)"><path fill="#f6f7f8" d="M 17.382812 5.421875 L 16.804688 7.273438 C 16.726562 7.53125 16.453125 7.671875 16.199219 7.59375 C 15.941406 7.511719 15.800781 7.242188 15.878906 6.984375 L 16.109375 6.25 L 14.660156 7.039062 C 15.203125 8.597656 14.542969 10.363281 13.035156 11.152344 C 12.480469 11.445312 11.882812 11.5625 11.300781 11.539062 C 10.945312 11.519531 10.59375 11.449219 10.261719 11.324219 C 9.511719 11.042969 8.855469 10.496094 8.453125 9.730469 C 8.050781 8.964844 7.972656 8.113281 8.164062 7.335938 C 8.484375 7.300781 8.816406 7.328125 9.140625 7.429688 C 8.742188 8.710938 9.457031 10.066406 10.738281 10.464844 C 11.0625 10.566406 11.390625 10.59375 11.710938 10.5625 C 12.644531 10.460938 13.476562 9.824219 13.769531 8.871094 C 14.167969 7.589844 13.453125 6.234375 12.175781 5.835938 C 11.222656 5.539062 10.226562 5.859375 9.613281 6.574219 C 9.554688 6.550781 9.492188 6.523438 9.429688 6.503906 C 9.144531 6.417969 8.859375 6.371094 8.578125 6.359375 C 8.882812 5.863281 9.320312 5.4375 9.875 5.148438 C 11.382812 4.355469 13.210938 4.808594 14.1875 6.140625 L 15.65625 5.394531 L 14.921875 5.164062 C 14.667969 5.085938 14.523438 4.816406 14.601562 4.558594 C 14.683594 4.300781 14.953125 4.160156 15.210938 4.238281 L 17.0625 4.816406 C 17.316406 4.894531 17.460938 5.167969 17.382812 5.421875 " fill-opacity="1" fill-rule="nonzero"/></g></g></g></g></g></g></g></g></g><g fill="#fa036b" fill-opacity="1"><g transform="translate(77.47247, 29.766469)"><g><path d="M 10.34375 -3.96875 C 10.976562 -3.96875 11.59375 -4.066406 12.1875 -4.265625 C 12.789062 -4.460938 13.410156 -4.5625 14.046875 -4.5625 C 14.328125 -4.5625 14.546875 -4.507812 14.703125 -4.40625 C 14.867188 -4.300781 14.953125 -4.085938 14.953125 -3.765625 C 14.953125 -3.546875 14.941406 -3.257812 14.921875 -2.90625 C 14.898438 -2.5625 14.847656 -2.226562 14.765625 -1.90625 C 14.691406 -1.582031 14.570312 -1.335938 14.40625 -1.171875 C 14.195312 -0.960938 13.867188 -0.785156 13.421875 -0.640625 C 12.984375 -0.503906 12.503906 -0.390625 11.984375 -0.296875 C 11.472656 -0.210938 10.972656 -0.15625 10.484375 -0.125 C 10.003906 -0.09375 9.617188 -0.078125 9.328125 -0.078125 C 8.015625 -0.078125 6.820312 -0.3125 5.75 -0.78125 C 4.6875 -1.257812 3.765625 -1.921875 2.984375 -2.765625 C 2.203125 -3.617188 1.601562 -4.601562 1.1875 -5.71875 C 0.769531 -6.832031 0.5625 -8.023438 0.5625 -9.296875 C 0.5625 -10.523438 0.765625 -11.691406 1.171875 -12.796875 C 1.578125 -13.898438 2.15625 -14.878906 2.90625 -15.734375 C 3.664062 -16.597656 4.566406 -17.273438 5.609375 -17.765625 C 6.660156 -18.253906 7.820312 -18.5 9.09375 -18.5 C 9.3125 -18.5 9.523438 -18.5 9.734375 -18.5 C 9.953125 -18.5 10.171875 -18.488281 10.390625 -18.46875 C 10.710938 -18.457031 11.132812 -18.410156 11.65625 -18.328125 C 12.175781 -18.242188 12.675781 -18.117188 13.15625 -17.953125 C 13.644531 -17.796875 13.988281 -17.597656 14.1875 -17.359375 C 14.476562 -17.046875 14.640625 -16.625 14.671875 -16.09375 C 14.710938 -15.5625 14.734375 -15.097656 14.734375 -14.703125 C 14.734375 -14.484375 14.695312 -14.304688 14.625 -14.171875 C 14.5625 -14.035156 14.398438 -13.96875 14.140625 -13.96875 C 13.460938 -13.96875 12.796875 -14.0625 12.140625 -14.25 C 11.484375 -14.445312 10.8125 -14.546875 10.125 -14.546875 C 9.15625 -14.546875 8.359375 -14.300781 7.734375 -13.8125 C 7.109375 -13.320312 6.644531 -12.6875 6.34375 -11.90625 C 6.039062 -11.132812 5.890625 -10.304688 5.890625 -9.421875 C 5.890625 -8.503906 6.046875 -7.628906 6.359375 -6.796875 C 6.671875 -5.972656 7.15625 -5.296875 7.8125 -4.765625 C 8.46875 -4.234375 9.3125 -3.96875 10.34375 -3.96875 Z M 10.34375 -3.96875 "/></g></g></g><g fill="#fa036b" fill-opacity="1"><g transform="translate(98.230549, 29.766469)"><g><path d="M 7.796875 -12.03125 L 7.796875 -7.59375 C 7.796875 -7.269531 7.785156 -6.828125 7.765625 -6.265625 C 7.753906 -5.703125 7.726562 -5.109375 7.6875 -4.484375 C 7.644531 -3.867188 7.582031 -3.296875 7.5 -2.765625 C 7.425781 -2.234375 7.320312 -1.828125 7.1875 -1.546875 C 6.976562 -1.128906 6.695312 -0.816406 6.34375 -0.609375 C 5.988281 -0.410156 5.582031 -0.3125 5.125 -0.3125 C 4.8125 -0.3125 4.5 -0.328125 4.1875 -0.359375 C 3.875 -0.390625 3.582031 -0.484375 3.3125 -0.640625 C 3.070312 -0.773438 2.875 -1.054688 2.71875 -1.484375 C 2.570312 -1.921875 2.453125 -2.429688 2.359375 -3.015625 C 2.265625 -3.609375 2.195312 -4.207031 2.15625 -4.8125 C 2.113281 -5.425781 2.085938 -5.988281 2.078125 -6.5 C 2.066406 -7.007812 2.0625 -7.398438 2.0625 -7.671875 C 2.0625 -8.210938 2.050781 -8.753906 2.03125 -9.296875 C 2.019531 -9.847656 2.015625 -10.394531 2.015625 -10.9375 C 2.015625 -11.21875 2.015625 -11.617188 2.015625 -12.140625 C 2.023438 -12.660156 2.054688 -13.222656 2.109375 -13.828125 C 2.160156 -14.429688 2.238281 -15.015625 2.34375 -15.578125 C 2.445312 -16.148438 2.59375 -16.648438 2.78125 -17.078125 C 2.96875 -17.515625 3.195312 -17.8125 3.46875 -17.96875 C 3.664062 -18.082031 3.875 -18.160156 4.09375 -18.203125 C 4.320312 -18.242188 4.554688 -18.265625 4.796875 -18.265625 C 5.128906 -18.265625 5.425781 -18.253906 5.6875 -18.234375 C 5.957031 -18.222656 6.238281 -18.125 6.53125 -17.9375 C 6.8125 -17.769531 7.035156 -17.429688 7.203125 -16.921875 C 7.378906 -16.410156 7.507812 -15.835938 7.59375 -15.203125 C 7.675781 -14.566406 7.726562 -13.953125 7.75 -13.359375 C 7.78125 -12.773438 7.796875 -12.332031 7.796875 -12.03125 Z M 7.796875 -12.03125 "/></g></g></g><g fill="#fa036b" fill-opacity="1"><g transform="translate(112.112289, 29.766469)"><g><path d="M 16.84375 -10.09375 L 16.84375 -8.125 C 16.84375 -7.84375 16.835938 -7.445312 16.828125 -6.9375 C 16.816406 -6.425781 16.789062 -5.867188 16.75 -5.265625 C 16.707031 -4.660156 16.640625 -4.066406 16.546875 -3.484375 C 16.453125 -2.910156 16.328125 -2.398438 16.171875 -1.953125 C 16.023438 -1.515625 15.828125 -1.203125 15.578125 -1.015625 C 15.234375 -0.765625 14.867188 -0.601562 14.484375 -0.53125 C 14.109375 -0.46875 13.707031 -0.4375 13.28125 -0.4375 C 13.101562 -0.4375 12.929688 -0.445312 12.765625 -0.46875 C 12.597656 -0.5 12.429688 -0.546875 12.265625 -0.609375 C 12.023438 -0.734375 11.75 -1.007812 11.4375 -1.4375 C 11.132812 -1.875 10.816406 -2.394531 10.484375 -3 C 10.148438 -3.613281 9.816406 -4.25 9.484375 -4.90625 C 9.160156 -5.5625 8.847656 -6.171875 8.546875 -6.734375 C 8.253906 -7.304688 7.984375 -7.769531 7.734375 -8.125 C 7.484375 -8.488281 7.273438 -8.671875 7.109375 -8.671875 C 6.992188 -8.671875 6.90625 -8.570312 6.84375 -8.375 C 6.78125 -8.175781 6.734375 -7.941406 6.703125 -7.671875 C 6.679688 -7.410156 6.664062 -7.160156 6.65625 -6.921875 C 6.65625 -6.691406 6.65625 -6.535156 6.65625 -6.453125 C 6.65625 -5.765625 6.671875 -5.085938 6.703125 -4.421875 C 6.734375 -3.753906 6.75 -3.078125 6.75 -2.390625 C 6.75 -1.765625 6.609375 -1.289062 6.328125 -0.96875 C 6.046875 -0.644531 5.582031 -0.484375 4.9375 -0.484375 C 4.65625 -0.484375 4.296875 -0.515625 3.859375 -0.578125 C 3.429688 -0.648438 3.101562 -0.789062 2.875 -1 C 2.632812 -1.226562 2.4375 -1.644531 2.28125 -2.25 C 2.132812 -2.851562 2.019531 -3.550781 1.9375 -4.34375 C 1.851562 -5.132812 1.789062 -5.9375 1.75 -6.75 C 1.71875 -7.570312 1.695312 -8.320312 1.6875 -9 C 1.6875 -9.675781 1.6875 -10.1875 1.6875 -10.53125 C 1.6875 -10.863281 1.691406 -11.304688 1.703125 -11.859375 C 1.722656 -12.410156 1.757812 -13.007812 1.8125 -13.65625 C 1.875 -14.300781 1.972656 -14.925781 2.109375 -15.53125 C 2.242188 -16.132812 2.429688 -16.648438 2.671875 -17.078125 C 2.910156 -17.515625 3.21875 -17.800781 3.59375 -17.9375 C 3.882812 -18.039062 4.148438 -18.097656 4.390625 -18.109375 C 4.640625 -18.128906 4.898438 -18.140625 5.171875 -18.140625 C 5.679688 -18.140625 6.15625 -17.945312 6.59375 -17.5625 C 7.039062 -17.1875 7.453125 -16.703125 7.828125 -16.109375 C 8.203125 -15.515625 8.550781 -14.878906 8.875 -14.203125 C 9.195312 -13.535156 9.492188 -12.90625 9.765625 -12.3125 C 10.035156 -11.71875 10.289062 -11.226562 10.53125 -10.84375 C 10.78125 -10.457031 11.015625 -10.265625 11.234375 -10.265625 C 11.421875 -10.265625 11.554688 -10.414062 11.640625 -10.71875 C 11.734375 -11.03125 11.800781 -11.398438 11.84375 -11.828125 C 11.882812 -12.253906 11.90625 -12.648438 11.90625 -13.015625 C 11.90625 -13.390625 11.90625 -13.644531 11.90625 -13.78125 C 11.90625 -14.238281 11.890625 -14.691406 11.859375 -15.140625 C 11.835938 -15.597656 11.828125 -16.054688 11.828125 -16.515625 C 11.828125 -17.023438 11.90625 -17.394531 12.0625 -17.625 C 12.226562 -17.851562 12.460938 -17.992188 12.765625 -18.046875 C 13.066406 -18.097656 13.429688 -18.125 13.859375 -18.125 C 14.117188 -18.125 14.429688 -18.082031 14.796875 -18 C 15.160156 -17.925781 15.425781 -17.796875 15.59375 -17.609375 C 15.882812 -17.335938 16.113281 -16.875 16.28125 -16.21875 C 16.457031 -15.5625 16.582031 -14.835938 16.65625 -14.046875 C 16.726562 -13.265625 16.773438 -12.507812 16.796875 -11.78125 C 16.828125 -11.0625 16.84375 -10.5 16.84375 -10.09375 Z M 16.84375 -10.09375 "/></g></g></g><g fill="#fa036b" fill-opacity="1"><g transform="translate(134.653116, 29.766469)"><g><path d="M 8.25 -14.703125 C 7.789062 -14.703125 7.363281 -14.601562 6.96875 -14.40625 C 6.582031 -14.21875 6.390625 -13.847656 6.390625 -13.296875 C 6.390625 -12.878906 6.582031 -12.53125 6.96875 -12.25 C 7.363281 -11.96875 7.867188 -11.710938 8.484375 -11.484375 C 9.109375 -11.265625 9.773438 -11.023438 10.484375 -10.765625 C 11.191406 -10.515625 11.851562 -10.191406 12.46875 -9.796875 C 13.09375 -9.410156 13.597656 -8.910156 13.984375 -8.296875 C 14.378906 -7.691406 14.578125 -6.921875 14.578125 -5.984375 C 14.578125 -4.773438 14.257812 -3.722656 13.625 -2.828125 C 12.988281 -1.929688 12.164062 -1.238281 11.15625 -0.75 C 10.144531 -0.269531 9.0625 -0.03125 7.90625 -0.03125 C 7.050781 -0.03125 6.25 -0.078125 5.5 -0.171875 C 4.757812 -0.265625 4.101562 -0.460938 3.53125 -0.765625 C 2.957031 -1.066406 2.507812 -1.519531 2.1875 -2.125 C 1.863281 -2.726562 1.703125 -3.539062 1.703125 -4.5625 C 1.703125 -4.675781 1.71875 -4.78125 1.75 -4.875 C 1.789062 -4.96875 1.878906 -5.015625 2.015625 -5.015625 C 2.398438 -5.015625 2.785156 -4.953125 3.171875 -4.828125 C 3.566406 -4.703125 3.953125 -4.578125 4.328125 -4.453125 C 4.785156 -4.316406 5.253906 -4.191406 5.734375 -4.078125 C 6.210938 -3.960938 6.6875 -3.90625 7.15625 -3.90625 C 7.476562 -3.90625 7.800781 -3.945312 8.125 -4.03125 C 8.445312 -4.113281 8.71875 -4.265625 8.9375 -4.484375 C 9.164062 -4.703125 9.28125 -5 9.28125 -5.375 C 9.28125 -5.914062 9.082031 -6.320312 8.6875 -6.59375 C 8.363281 -6.832031 8.015625 -7 7.640625 -7.09375 C 7.265625 -7.1875 6.894531 -7.285156 6.53125 -7.390625 C 5.894531 -7.578125 5.257812 -7.835938 4.625 -8.171875 C 4 -8.503906 3.421875 -8.898438 2.890625 -9.359375 C 2.367188 -9.828125 1.945312 -10.363281 1.625 -10.96875 C 1.300781 -11.570312 1.140625 -12.234375 1.140625 -12.953125 C 1.140625 -13.878906 1.335938 -14.691406 1.734375 -15.390625 C 2.140625 -16.085938 2.675781 -16.671875 3.34375 -17.140625 C 4.019531 -17.609375 4.765625 -17.957031 5.578125 -18.1875 C 6.390625 -18.414062 7.210938 -18.53125 8.046875 -18.53125 C 8.828125 -18.53125 9.570312 -18.503906 10.28125 -18.453125 C 10.988281 -18.398438 11.617188 -18.253906 12.171875 -18.015625 C 12.722656 -17.773438 13.160156 -17.378906 13.484375 -16.828125 C 13.804688 -16.273438 13.96875 -15.507812 13.96875 -14.53125 C 13.96875 -14.101562 13.742188 -13.890625 13.296875 -13.890625 C 12.921875 -13.890625 12.539062 -13.9375 12.15625 -14.03125 C 11.78125 -14.125 11.414062 -14.210938 11.0625 -14.296875 C 10.601562 -14.398438 10.140625 -14.492188 9.671875 -14.578125 C 9.203125 -14.660156 8.726562 -14.703125 8.25 -14.703125 Z M 8.25 -14.703125 "/></g></g></g><g fill="#fa036b" fill-opacity="1"><g transform="translate(154.392471, 29.766469)"><g><path d="M 6.9375 -5.625 C 6.9375 -4.726562 7.398438 -4.28125 8.328125 -4.28125 C 9.023438 -4.28125 9.726562 -4.289062 10.4375 -4.3125 C 11.15625 -4.34375 11.863281 -4.359375 12.5625 -4.359375 C 13.1875 -4.359375 13.582031 -4.242188 13.75 -4.015625 C 13.925781 -3.796875 14.015625 -3.390625 14.015625 -2.796875 C 14.015625 -2.273438 13.878906 -1.847656 13.609375 -1.515625 C 13.347656 -1.179688 13.015625 -0.929688 12.609375 -0.765625 C 12.203125 -0.597656 11.757812 -0.476562 11.28125 -0.40625 C 10.8125 -0.34375 10.375 -0.3125 9.96875 -0.3125 C 9.0625 -0.3125 8.109375 -0.3125 7.109375 -0.3125 C 6.117188 -0.320312 5.203125 -0.5 4.359375 -0.84375 C 3.421875 -1.226562 2.78125 -1.785156 2.4375 -2.515625 C 2.101562 -3.253906 1.898438 -4.097656 1.828125 -5.046875 C 1.796875 -5.671875 1.769531 -6.289062 1.75 -6.90625 C 1.738281 -7.53125 1.734375 -8.160156 1.734375 -8.796875 C 1.734375 -9.304688 1.726562 -9.8125 1.71875 -10.3125 C 1.707031 -10.8125 1.703125 -11.316406 1.703125 -11.828125 C 1.703125 -13.441406 1.878906 -14.6875 2.234375 -15.5625 C 2.597656 -16.445312 3.128906 -17.082031 3.828125 -17.46875 C 4.535156 -17.851562 5.410156 -18.085938 6.453125 -18.171875 C 7.503906 -18.253906 8.71875 -18.296875 10.09375 -18.296875 C 10.664062 -18.296875 11.265625 -18.21875 11.890625 -18.0625 C 12.523438 -17.914062 13.046875 -17.617188 13.453125 -17.171875 C 13.691406 -16.921875 13.847656 -16.617188 13.921875 -16.265625 C 14.003906 -15.921875 14.046875 -15.578125 14.046875 -15.234375 C 14.046875 -14.878906 13.894531 -14.625 13.59375 -14.46875 C 13.300781 -14.320312 12.960938 -14.234375 12.578125 -14.203125 C 12.191406 -14.179688 11.875 -14.171875 11.625 -14.171875 C 11.195312 -14.171875 10.773438 -14.191406 10.359375 -14.234375 C 9.941406 -14.273438 9.519531 -14.296875 9.09375 -14.296875 C 8.625 -14.296875 8.226562 -14.273438 7.90625 -14.234375 C 7.582031 -14.191406 7.34375 -14.054688 7.1875 -13.828125 C 7.03125 -13.597656 6.953125 -13.191406 6.953125 -12.609375 C 6.953125 -12.203125 7.09375 -11.90625 7.375 -11.71875 C 7.65625 -11.53125 7.984375 -11.410156 8.359375 -11.359375 C 8.742188 -11.316406 9.09375 -11.296875 9.40625 -11.296875 C 9.789062 -11.296875 10.175781 -11.304688 10.5625 -11.328125 C 10.945312 -11.347656 11.328125 -11.359375 11.703125 -11.359375 C 12.023438 -11.359375 12.351562 -11.320312 12.6875 -11.25 C 13.03125 -11.175781 13.300781 -11.003906 13.5 -10.734375 C 13.632812 -10.554688 13.710938 -10.316406 13.734375 -10.015625 C 13.753906 -9.710938 13.765625 -9.457031 13.765625 -9.25 C 13.765625 -9.082031 13.742188 -8.90625 13.703125 -8.71875 C 13.671875 -8.53125 13.613281 -8.367188 13.53125 -8.234375 C 13.414062 -8.066406 13.191406 -7.9375 12.859375 -7.84375 C 12.523438 -7.757812 12.148438 -7.703125 11.734375 -7.671875 C 11.316406 -7.648438 10.921875 -7.644531 10.546875 -7.65625 C 10.171875 -7.664062 9.882812 -7.671875 9.6875 -7.671875 C 9.476562 -7.671875 9.21875 -7.671875 8.90625 -7.671875 C 8.59375 -7.671875 8.289062 -7.648438 8 -7.609375 C 7.707031 -7.566406 7.476562 -7.476562 7.3125 -7.34375 C 7.226562 -7.269531 7.164062 -7.175781 7.125 -7.0625 C 7.082031 -6.957031 7.046875 -6.847656 7.015625 -6.734375 C 6.972656 -6.554688 6.945312 -6.375 6.9375 -6.1875 C 6.9375 -6 6.9375 -5.8125 6.9375 -5.625 Z M 6.9375 -5.625 "/></g></g></g><g fill="#fa036b" fill-opacity="1"><g transform="translate(174.131825, 29.766469)"><g><path d="M 7.03125 -9.484375 C 7.03125 -9.160156 7.035156 -8.765625 7.046875 -8.296875 C 7.054688 -7.828125 7.09375 -7.347656 7.15625 -6.859375 C 7.226562 -6.378906 7.351562 -5.941406 7.53125 -5.546875 C 7.707031 -5.160156 7.96875 -4.875 8.3125 -4.6875 C 8.550781 -4.570312 8.804688 -4.492188 9.078125 -4.453125 C 9.347656 -4.410156 9.617188 -4.390625 9.890625 -4.390625 C 10.484375 -4.390625 11.0625 -4.394531 11.625 -4.40625 C 12.195312 -4.425781 12.773438 -4.4375 13.359375 -4.4375 C 14.148438 -4.4375 14.546875 -4.035156 14.546875 -3.234375 C 14.546875 -2.910156 14.507812 -2.578125 14.4375 -2.234375 C 14.375 -1.898438 14.222656 -1.613281 13.984375 -1.375 C 13.597656 -0.945312 13.109375 -0.660156 12.515625 -0.515625 C 11.921875 -0.378906 11.351562 -0.3125 10.8125 -0.3125 C 10.226562 -0.3125 9.546875 -0.304688 8.765625 -0.296875 C 7.984375 -0.285156 7.195312 -0.320312 6.40625 -0.40625 C 5.613281 -0.488281 4.882812 -0.660156 4.21875 -0.921875 C 3.550781 -1.191406 3.03125 -1.597656 2.65625 -2.140625 C 2.382812 -2.535156 2.1875 -2.953125 2.0625 -3.390625 C 1.945312 -3.828125 1.867188 -4.273438 1.828125 -4.734375 C 1.785156 -5.421875 1.753906 -6.101562 1.734375 -6.78125 C 1.710938 -7.457031 1.703125 -8.132812 1.703125 -8.8125 C 1.703125 -9.15625 1.707031 -9.609375 1.71875 -10.171875 C 1.726562 -10.742188 1.742188 -11.359375 1.765625 -12.015625 C 1.796875 -12.679688 1.835938 -13.34375 1.890625 -14 C 1.941406 -14.65625 2.015625 -15.242188 2.109375 -15.765625 C 2.210938 -16.296875 2.34375 -16.695312 2.5 -16.96875 C 2.800781 -17.507812 3.191406 -17.847656 3.671875 -17.984375 C 4.148438 -18.128906 4.675781 -18.203125 5.25 -18.203125 C 5.726562 -18.203125 6.097656 -18.023438 6.359375 -17.671875 C 6.617188 -17.328125 6.804688 -16.890625 6.921875 -16.359375 C 7.046875 -15.835938 7.125 -15.320312 7.15625 -14.8125 C 7.195312 -14.300781 7.21875 -13.875 7.21875 -13.53125 C 7.21875 -13.070312 7.207031 -12.613281 7.1875 -12.15625 C 7.164062 -11.695312 7.140625 -11.238281 7.109375 -10.78125 C 7.085938 -10.5625 7.066406 -10.34375 7.046875 -10.125 C 7.035156 -9.914062 7.03125 -9.703125 7.03125 -9.484375 Z M 7.03125 -9.484375 "/></g></g></g><g fill="#fa036b" fill-opacity="1"><g transform="translate(197.551551, 29.766469)"><g><path d="M 5.53125 -18.140625 C 6.175781 -18.140625 6.585938 -17.921875 6.765625 -17.484375 C 6.941406 -17.054688 7.03125 -16.570312 7.03125 -16.03125 C 7.03125 -15.707031 7.015625 -15.390625 6.984375 -15.078125 C 6.953125 -14.765625 6.9375 -14.445312 6.9375 -14.125 C 6.9375 -13.4375 6.972656 -12.894531 7.046875 -12.5 C 7.117188 -12.101562 7.320312 -11.816406 7.65625 -11.640625 C 7.988281 -11.472656 8.53125 -11.390625 9.28125 -11.390625 C 10.019531 -11.390625 10.609375 -11.535156 11.046875 -11.828125 C 11.492188 -12.117188 11.71875 -12.675781 11.71875 -13.5 C 11.71875 -13.976562 11.679688 -14.445312 11.609375 -14.90625 C 11.546875 -15.363281 11.515625 -15.832031 11.515625 -16.3125 C 11.515625 -16.851562 11.609375 -17.289062 11.796875 -17.625 C 11.984375 -17.96875 12.375 -18.140625 12.96875 -18.140625 C 13.175781 -18.140625 13.453125 -18.125 13.796875 -18.09375 C 14.148438 -18.070312 14.492188 -18.023438 14.828125 -17.953125 C 15.171875 -17.878906 15.410156 -17.765625 15.546875 -17.609375 C 15.835938 -17.335938 16.066406 -16.910156 16.234375 -16.328125 C 16.398438 -15.753906 16.523438 -15.101562 16.609375 -14.375 C 16.703125 -13.65625 16.765625 -12.925781 16.796875 -12.1875 C 16.828125 -11.445312 16.84375 -10.753906 16.84375 -10.109375 C 16.84375 -9.472656 16.84375 -8.945312 16.84375 -8.53125 C 16.84375 -8.144531 16.832031 -7.632812 16.8125 -7 C 16.800781 -6.363281 16.765625 -5.695312 16.703125 -5 C 16.640625 -4.300781 16.554688 -3.648438 16.453125 -3.046875 C 16.359375 -2.441406 16.21875 -1.96875 16.03125 -1.625 C 15.957031 -1.507812 15.875 -1.390625 15.78125 -1.265625 C 15.6875 -1.148438 15.570312 -1.050781 15.4375 -0.96875 C 15.101562 -0.71875 14.691406 -0.566406 14.203125 -0.515625 C 13.722656 -0.460938 13.28125 -0.4375 12.875 -0.4375 C 12.425781 -0.4375 12.097656 -0.601562 11.890625 -0.9375 C 11.691406 -1.28125 11.566406 -1.675781 11.515625 -2.125 C 11.460938 -2.570312 11.4375 -2.957031 11.4375 -3.28125 C 11.4375 -3.738281 11.457031 -4.195312 11.5 -4.65625 C 11.539062 -5.125 11.5625 -5.585938 11.5625 -6.046875 C 11.5625 -6.566406 11.445312 -6.941406 11.21875 -7.171875 C 10.988281 -7.398438 10.691406 -7.546875 10.328125 -7.609375 C 9.960938 -7.671875 9.570312 -7.703125 9.15625 -7.703125 C 8.300781 -7.703125 7.695312 -7.507812 7.34375 -7.125 C 7 -6.738281 6.828125 -6.125 6.828125 -5.28125 C 6.828125 -4.851562 6.851562 -4.410156 6.90625 -3.953125 C 6.957031 -3.503906 6.984375 -3.050781 6.984375 -2.59375 C 6.984375 -2.207031 6.957031 -1.847656 6.90625 -1.515625 C 6.851562 -1.179688 6.71875 -0.914062 6.5 -0.71875 C 6.289062 -0.53125 5.941406 -0.4375 5.453125 -0.4375 C 5.148438 -0.4375 4.804688 -0.445312 4.421875 -0.46875 C 4.035156 -0.5 3.703125 -0.570312 3.421875 -0.6875 C 3.078125 -0.820312 2.796875 -1.128906 2.578125 -1.609375 C 2.359375 -2.097656 2.1875 -2.671875 2.0625 -3.328125 C 1.945312 -3.992188 1.863281 -4.679688 1.8125 -5.390625 C 1.757812 -6.097656 1.726562 -6.742188 1.71875 -7.328125 C 1.707031 -7.910156 1.703125 -8.363281 1.703125 -8.6875 C 1.703125 -9.144531 1.707031 -9.753906 1.71875 -10.515625 C 1.726562 -11.285156 1.757812 -12.09375 1.8125 -12.9375 C 1.863281 -13.789062 1.9375 -14.582031 2.03125 -15.3125 C 2.132812 -16.039062 2.289062 -16.585938 2.5 -16.953125 C 2.582031 -17.085938 2.671875 -17.210938 2.765625 -17.328125 C 2.859375 -17.441406 2.960938 -17.546875 3.078125 -17.640625 C 3.421875 -17.890625 3.804688 -18.035156 4.234375 -18.078125 C 4.671875 -18.117188 5.101562 -18.140625 5.53125 -18.140625 Z M 5.53125 -18.140625 "/></g></g></g><g fill="#fa036b" fill-opacity="1"><g transform="translate(220.092379, 29.766469)"><g><path d="M 9.375 -18.53125 C 10.695312 -18.53125 11.929688 -18.300781 13.078125 -17.84375 C 14.234375 -17.394531 15.234375 -16.757812 16.078125 -15.9375 C 16.929688 -15.113281 17.597656 -14.132812 18.078125 -13 C 18.566406 -11.875 18.8125 -10.640625 18.8125 -9.296875 C 18.8125 -8.078125 18.582031 -6.910156 18.125 -5.796875 C 17.664062 -4.679688 17.023438 -3.691406 16.203125 -2.828125 C 15.390625 -1.960938 14.441406 -1.28125 13.359375 -0.78125 C 12.285156 -0.289062 11.117188 -0.046875 9.859375 -0.046875 C 8.535156 -0.046875 7.304688 -0.273438 6.171875 -0.734375 C 5.046875 -1.191406 4.0625 -1.84375 3.21875 -2.6875 C 2.382812 -3.53125 1.726562 -4.507812 1.25 -5.625 C 0.769531 -6.75 0.53125 -7.972656 0.53125 -9.296875 C 0.53125 -10.535156 0.75 -11.710938 1.1875 -12.828125 C 1.632812 -13.941406 2.253906 -14.921875 3.046875 -15.765625 C 3.847656 -16.617188 4.785156 -17.289062 5.859375 -17.78125 C 6.929688 -18.28125 8.101562 -18.53125 9.375 -18.53125 Z M 9.890625 -4.125 C 10.703125 -4.125 11.367188 -4.363281 11.890625 -4.84375 C 12.421875 -5.320312 12.816406 -5.914062 13.078125 -6.625 C 13.347656 -7.34375 13.484375 -8.054688 13.484375 -8.765625 C 13.484375 -9.429688 13.4375 -10.09375 13.34375 -10.75 C 13.25 -11.414062 13.066406 -12.03125 12.796875 -12.59375 C 12.535156 -13.15625 12.148438 -13.601562 11.640625 -13.9375 C 11.128906 -14.28125 10.46875 -14.453125 9.65625 -14.453125 C 8.851562 -14.453125 8.203125 -14.28125 7.703125 -13.9375 C 7.203125 -13.601562 6.816406 -13.15625 6.546875 -12.59375 C 6.273438 -12.03125 6.085938 -11.410156 5.984375 -10.734375 C 5.878906 -10.066406 5.828125 -9.410156 5.828125 -8.765625 C 5.828125 -7.921875 5.972656 -7.144531 6.265625 -6.4375 C 6.554688 -5.726562 7.003906 -5.164062 7.609375 -4.75 C 8.210938 -4.332031 8.972656 -4.125 9.890625 -4.125 Z M 9.890625 -4.125 "/></g></g></g><g fill="#fa036b" fill-opacity="1"><g transform="translate(243.397241, 29.766469)"><g><path d="M 6.703125 -18.53125 L 8.234375 -18.53125 C 8.984375 -18.53125 9.765625 -18.429688 10.578125 -18.234375 C 11.390625 -18.035156 12.148438 -17.734375 12.859375 -17.328125 C 13.566406 -16.921875 14.132812 -16.398438 14.5625 -15.765625 C 15 -15.128906 15.21875 -14.367188 15.21875 -13.484375 C 15.21875 -12.785156 15.0625 -12.21875 14.75 -11.78125 C 14.445312 -11.351562 14.054688 -10.984375 13.578125 -10.671875 C 13.109375 -10.367188 12.597656 -10.070312 12.046875 -9.78125 C 12.140625 -9.6875 12.257812 -9.601562 12.40625 -9.53125 C 12.5625 -9.457031 12.695312 -9.40625 12.8125 -9.375 C 13.664062 -9.082031 14.367188 -8.65625 14.921875 -8.09375 C 15.472656 -7.539062 15.75 -6.785156 15.75 -5.828125 C 15.75 -4.722656 15.507812 -3.796875 15.03125 -3.046875 C 14.5625 -2.304688 13.9375 -1.710938 13.15625 -1.265625 C 12.375 -0.828125 11.515625 -0.515625 10.578125 -0.328125 C 9.640625 -0.140625 8.703125 -0.046875 7.765625 -0.046875 C 7.140625 -0.046875 6.472656 -0.0625 5.765625 -0.09375 C 5.066406 -0.132812 4.421875 -0.265625 3.828125 -0.484375 C 3.398438 -0.640625 3.050781 -0.9375 2.78125 -1.375 C 2.519531 -1.8125 2.3125 -2.328125 2.15625 -2.921875 C 2.007812 -3.523438 1.90625 -4.148438 1.84375 -4.796875 C 1.789062 -5.441406 1.753906 -6.046875 1.734375 -6.609375 C 1.710938 -7.179688 1.703125 -7.65625 1.703125 -8.03125 L 1.703125 -10.0625 C 1.703125 -10.46875 1.710938 -10.976562 1.734375 -11.59375 C 1.753906 -12.207031 1.785156 -12.851562 1.828125 -13.53125 C 1.878906 -14.207031 1.953125 -14.835938 2.046875 -15.421875 C 2.140625 -16.015625 2.273438 -16.476562 2.453125 -16.8125 C 2.671875 -17.269531 3.015625 -17.628906 3.484375 -17.890625 C 4.015625 -18.140625 4.535156 -18.304688 5.046875 -18.390625 C 5.566406 -18.484375 6.117188 -18.53125 6.703125 -18.53125 Z M 7.90625 -14.8125 C 7.40625 -14.8125 7.09375 -14.679688 6.96875 -14.421875 C 6.851562 -14.171875 6.796875 -13.820312 6.796875 -13.375 C 6.796875 -13.1875 6.785156 -12.992188 6.765625 -12.796875 C 6.753906 -12.609375 6.75 -12.421875 6.75 -12.234375 C 6.75 -11.992188 6.800781 -11.769531 6.90625 -11.5625 C 7.007812 -11.363281 7.207031 -11.265625 7.5 -11.265625 C 7.882812 -11.265625 8.316406 -11.296875 8.796875 -11.359375 C 9.285156 -11.429688 9.703125 -11.585938 10.046875 -11.828125 C 10.398438 -12.078125 10.578125 -12.457031 10.578125 -12.96875 C 10.578125 -13.507812 10.441406 -13.90625 10.171875 -14.15625 C 9.910156 -14.414062 9.578125 -14.585938 9.171875 -14.671875 C 8.765625 -14.765625 8.34375 -14.8125 7.90625 -14.8125 Z M 6.828125 -6.546875 L 6.828125 -5.28125 C 6.828125 -4.832031 6.894531 -4.46875 7.03125 -4.1875 C 7.164062 -3.90625 7.488281 -3.765625 8 -3.765625 C 8.539062 -3.765625 9.035156 -3.828125 9.484375 -3.953125 C 9.941406 -4.085938 10.300781 -4.320312 10.5625 -4.65625 C 10.820312 -5 10.953125 -5.476562 10.953125 -6.09375 C 10.953125 -6.582031 10.789062 -6.945312 10.46875 -7.1875 C 10.144531 -7.4375 9.765625 -7.601562 9.328125 -7.6875 C 8.890625 -7.78125 8.472656 -7.828125 8.078125 -7.828125 C 7.535156 -7.828125 7.191406 -7.75 7.046875 -7.59375 C 6.898438 -7.4375 6.828125 -7.085938 6.828125 -6.546875 Z M 6.828125 -6.546875 "/></g></g></g><g fill="#fa036b" fill-opacity="1"><g transform="translate(263.773291, 29.766469)"><g><path d="M 7.796875 -12.03125 L 7.796875 -7.59375 C 7.796875 -7.269531 7.785156 -6.828125 7.765625 -6.265625 C 7.753906 -5.703125 7.726562 -5.109375 7.6875 -4.484375 C 7.644531 -3.867188 7.582031 -3.296875 7.5 -2.765625 C 7.425781 -2.234375 7.320312 -1.828125 7.1875 -1.546875 C 6.976562 -1.128906 6.695312 -0.816406 6.34375 -0.609375 C 5.988281 -0.410156 5.582031 -0.3125 5.125 -0.3125 C 4.8125 -0.3125 4.5 -0.328125 4.1875 -0.359375 C 3.875 -0.390625 3.582031 -0.484375 3.3125 -0.640625 C 3.070312 -0.773438 2.875 -1.054688 2.71875 -1.484375 C 2.570312 -1.921875 2.453125 -2.429688 2.359375 -3.015625 C 2.265625 -3.609375 2.195312 -4.207031 2.15625 -4.8125 C 2.113281 -5.425781 2.085938 -5.988281 2.078125 -6.5 C 2.066406 -7.007812 2.0625 -7.398438 2.0625 -7.671875 C 2.0625 -8.210938 2.050781 -8.753906 2.03125 -9.296875 C 2.019531 -9.847656 2.015625 -10.394531 2.015625 -10.9375 C 2.015625 -11.21875 2.015625 -11.617188 2.015625 -12.140625 C 2.023438 -12.660156 2.054688 -13.222656 2.109375 -13.828125 C 2.160156 -14.429688 2.238281 -15.015625 2.34375 -15.578125 C 2.445312 -16.148438 2.59375 -16.648438 2.78125 -17.078125 C 2.96875 -17.515625 3.195312 -17.8125 3.46875 -17.96875 C 3.664062 -18.082031 3.875 -18.160156 4.09375 -18.203125 C 4.320312 -18.242188 4.554688 -18.265625 4.796875 -18.265625 C 5.128906 -18.265625 5.425781 -18.253906 5.6875 -18.234375 C 5.957031 -18.222656 6.238281 -18.125 6.53125 -17.9375 C 6.8125 -17.769531 7.035156 -17.429688 7.203125 -16.921875 C 7.378906 -16.410156 7.507812 -15.835938 7.59375 -15.203125 C 7.675781 -14.566406 7.726562 -13.953125 7.75 -13.359375 C 7.78125 -12.773438 7.796875 -12.332031 7.796875 -12.03125 Z M 7.796875 -12.03125 "/></g></g></g><g fill="#fa036b" fill-opacity="1"><g transform="translate(263.698645, 9.156978)"><g><path d="M 4.328125 -5.25 L 5.6875 -5.25 C 6.332031 -5.25 6.800781 -5.113281 7.09375 -4.84375 C 7.394531 -4.582031 7.585938 -4.234375 7.671875 -3.796875 C 7.753906 -3.367188 7.796875 -2.894531 7.796875 -2.375 C 7.796875 -1.707031 7.675781 -1.207031 7.4375 -0.875 C 7.195312 -0.539062 6.859375 -0.320312 6.421875 -0.21875 C 5.992188 -0.125 5.492188 -0.078125 4.921875 -0.078125 C 3.898438 -0.078125 3.164062 -0.238281 2.71875 -0.5625 C 2.28125 -0.882812 2.0625 -1.585938 2.0625 -2.671875 C 2.0625 -3.535156 2.207031 -4.179688 2.5 -4.609375 C 2.789062 -5.035156 3.398438 -5.25 4.328125 -5.25 Z M 4.328125 -5.25 "/></g></g></g><g fill="#fa036b" fill-opacity="1"><g transform="translate(98.658301, 9.156978)"><g><path d="M 4.328125 -5.25 L 5.6875 -5.25 C 6.332031 -5.25 6.800781 -5.113281 7.09375 -4.84375 C 7.394531 -4.582031 7.585938 -4.234375 7.671875 -3.796875 C 7.753906 -3.367188 7.796875 -2.894531 7.796875 -2.375 C 7.796875 -1.707031 7.675781 -1.207031 7.4375 -0.875 C 7.195312 -0.539062 6.859375 -0.320312 6.421875 -0.21875 C 5.992188 -0.125 5.492188 -0.078125 4.921875 -0.078125 C 3.898438 -0.078125 3.164062 -0.238281 2.71875 -0.5625 C 2.28125 -0.882812 2.0625 -1.585938 2.0625 -2.671875 C 2.0625 -3.535156 2.207031 -4.179688 2.5 -4.609375 C 2.789062 -5.035156 3.398438 -5.25 4.328125 -5.25 Z M 4.328125 -5.25 "/></g></g></g></svg>